<svg xmlns="http://www.w3.org/2000/svg" viewBox="0 0 124.04 192.27"><defs><style>.cls-1{fill:#39b54a;}.cls-2{fill:#f4ad21;}.cls-3{fill:none;}.cls-4{fill:#1a96e2;}.cls-5{font-size:24px;font-family:MyriadPro-Regular, Myriad Pro;}</style></defs><title>Google adverse</title><g id="Layer_2" data-name="Layer 2"><g id="Layer_1-2" data-name="Layer 1"><path class="cls-1" d="M37.44,99.13a18.63,18.63,0,0,1-2.26,8.92l-.23.4A18.72,18.72,0,0,1,2.41,90l.37-.63.05-.08a18.72,18.72,0,0,1,34.61,9.89Z"/><path class="cls-2" d="M35.18,108.05A18.72,18.72,0,0,0,2.83,89.24L44.89,16.58a18.69,18.69,0,0,0,.53,16.19l.82,1.43L62,61.54Z"/><polyline class="cls-3" points="2.83 89.24 2.78 89.32 2.41 89.95"/><line class="cls-3" x1="35.18" y1="108.05" x2="34.95" y2="108.45"/><path class="cls-4" d="M46.91,13.09a18.7,18.7,0,0,1,30.22,0l2,3.49,42.11,72.74.37.63a18.72,18.72,0,0,1-32.54,18.5l-.23-.4L62,61.54,46.24,34.2l-.82-1.43a18.69,18.69,0,0,1-.53-16.19h0"/><line class="cls-3" x1="45.42" y1="0.15" x2="45.33"/><text class="cls-5" transform="translate(3.08 167.73)">Google Ads</text></g></g></svg>