<svg xmlns="http://www.w3.org/2000/svg" viewBox="0 0 67.18 46.34"><defs><style>.cls-1{fill:#6279dd;}.cls-2,.cls-4{fill:none;}.cls-2,.cls-5{stroke:#6279dd;stroke-linecap:round;stroke-linejoin:round;}.cls-2,.cls-4,.cls-5{stroke-width:2px;}.cls-3,.cls-5{fill:#2a9bdb;}.cls-4{stroke:#2a9bdb;stroke-miterlimit:10;}</style></defs><title>avg-2</title><g id="Layer_2" data-name="Layer 2"><g id="Layer_1-2" data-name="Layer 1"><circle class="cls-1" cx="53.73" cy="6.13" r="0.92"/><circle class="cls-1" cx="55.34" cy="1.62" r="1.62"/><circle class="cls-1" cx="23.09" cy="3.83" r="1"/><circle class="cls-1" cx="27.19" cy="8.69" r="1.17"/><circle class="cls-1" cx="48.58" cy="6.13" r="0.95"/><path class="cls-2" d="M48.05,10.92H47.6A3.11,3.11,0,0,0,44.49,14v28.2a3.11,3.11,0,0,0,3.11,3.11H63.07a3.11,3.11,0,0,0,3.11-3.11V14a3.11,3.11,0,0,0-3.11-3.11H56.46"/><path class="cls-2" d="M20.34,10.92h-.45A3.1,3.1,0,0,0,16.79,14v28.2a3.1,3.1,0,0,0,3.1,3.11H35.36a3.11,3.11,0,0,0,3.11-3.11V14a3.11,3.11,0,0,0-3.11-3.11"/><line class="cls-2" x1="51.47" y1="10.92" x2="53.73" y2="10.92"/><line class="cls-2" x1="52.6" y1="13.44" x2="58.07" y2="13.44"/><rect class="cls-3" x="47.02" y="15.97" width="16.75" height="23.59" rx="2.24"/><circle class="cls-4" cx="55.49" cy="42.21" r="1.04"/><line class="cls-2" x1="19.58" y1="38.84" x2="20.91" y2="40.18"/><polygon class="cls-3" points="1.8 23.19 17.39 38.84 19.72 38.84 19.72 37.05 3.67 21.19 1.8 23.19"/><line class="cls-2" x1="1" y1="20.26" x2="2.84" y2="22.09"/><line class="cls-2" x1="12.86" y1="30.27" x2="10.9" y2="32.33"/><line class="cls-2" x1="16.19" y1="37.63" x2="18.23" y2="35.57"/><polyline class="cls-2" points="4.83 22.09 5.93 20.89 10.84 25.8"/><line class="cls-2" x1="24.97" y1="40.18" x2="33.97" y2="40.18"/><line class="cls-2" x1="22.75" y1="35.57" x2="33.97" y2="35.57"/><line class="cls-2" x1="22.75" y1="31.61" x2="33.97" y2="31.61"/><line class="cls-2" x1="22.75" y1="27.65" x2="33.97" y2="27.65"/><rect class="cls-5" x="22.75" y="14.73" width="11.23" height="7.88"/></g></g></svg>