<svg xmlns="http://www.w3.org/2000/svg" viewBox="0 0 65.81 44.25"><defs><style>.cls-1{fill:#659ae5;}.cls-2,.cls-4,.cls-6{fill:none;}.cls-2,.cls-4{stroke:#6279dd;}.cls-2{stroke-linecap:round;stroke-linejoin:round;}.cls-2,.cls-6{stroke-width:2px;}.cls-3{fill:#6279dd;}.cls-4,.cls-6{stroke-miterlimit:10;}.cls-5{fill:#2a9bdb;}.cls-6{stroke:#2a9bdb;}.cls-7{fill:#97b7dd;}</style></defs><title>svg-3_1</title><g id="Layer_2" data-name="Layer 2"><g id="Layer_1-2" data-name="Layer 1"><polygon class="cls-1" points="4.72 17.54 19.01 31.83 19.01 36.79 2.24 20.01 4.72 17.54"/><rect class="cls-2" x="48.45" y="31.17" width="16.36" height="11.8" rx="4.13"/><rect class="cls-3" x="48.45" y="39.48" width="16.36" height="1.27"/><path class="cls-2" d="M56.81,24h-.36a4.74,4.74,0,0,0-4.74,4.74v2.48h1.78V28.69a3,3,0,0,1,3-3h.24a3,3,0,0,1,3,3v2.48h1.78V28.69A4.74,4.74,0,0,0,56.81,24Z"/><path class="cls-4" d="M57.91,35a1,1,0,1,0-1.5.94v1.94h.9V35.93A1,1,0,0,0,57.91,35Z"/><path class="cls-2" d="M25.53,8.7h-.45A3.12,3.12,0,0,0,22,11.82V40.13a3.11,3.11,0,0,0,3.12,3.12H40.6a3.11,3.11,0,0,0,3.12-3.12V11.82A3.12,3.12,0,0,0,40.6,8.7H34"/><line class="cls-2" x1="28.96" y1="8.7" x2="31.23" y2="8.7"/><line class="cls-2" x1="30.1" y1="11.23" x2="35.59" y2="11.23"/><rect class="cls-5" x="24.49" y="13.77" width="16.82" height="23.68" rx="2.24"/><circle class="cls-6" cx="32.99" cy="40.12" r="1.04"/><circle class="cls-3" cx="32.1" cy="0.92" r="0.92"/><circle class="cls-3" cx="5.74" cy="8.45" r="0.69"/><circle class="cls-3" cx="8.11" cy="4.87" r="1.18"/><circle class="cls-3" cx="37.54" cy="2.93" r="1.09"/><circle class="cls-3" cx="24.15" cy="3.89" r="0.95"/><path class="cls-3" d="M19.34,41.17.23,22a.78.78,0,0,1,0-1.11L12.12,9a.79.79,0,0,1,1.12,0l6.58,6.58v2.24l-7.14-7.15L1.9,21.46,19.34,38.9Z"/><polygon class="cls-7" points="11.96 18.04 17.79 23.63 17.79 26.8 10.61 19.62 11.96 18.04"/></g></g></svg>