<svg xmlns="http://www.w3.org/2000/svg" viewBox="0 0 49.08 39.1"><defs><style>.cls-1{fill:#2b93e0;}.cls-2{fill:#2a9bdb;}.cls-3,.cls-4{fill:none;stroke-linecap:round;stroke-linejoin:round;}.cls-3{stroke:#6279dd;stroke-width:2px;}.cls-4{stroke:#fff;}.cls-5{fill:#6279dd;}</style></defs><title>svg-4_1</title><g id="Layer_2" data-name="Layer 2"><g id="Layer_1-2" data-name="Layer 1"><path class="cls-1" d="M1.44,16.29,8.16,9.56l2.11-.9,4.54-4.54s2.11.15,1.13,2.48c0,0-3.68,4.13-4.32,4.32l-1.35.63L.87,21Z"/><rect class="cls-2" x="11.09" y="10.17" width="14.96" height="21.91" rx="1.26" transform="translate(20.38 -6.95) rotate(45)"/><path class="cls-3" d="M30,10.09l5.32,5.32a1.66,1.66,0,0,1,0,2.35L15.43,37.62a1.66,1.66,0,0,1-2.35,0L1.49,26a1.66,1.66,0,0,1,0-2.35L21.34,3.82a1.67,1.67,0,0,1,2.36,0l.81.81"/><line class="cls-3" x1="26.5" y1="6.62" x2="27.76" y2="7.88"/><line class="cls-3" x1="25.99" y1="9.65" x2="29.23" y2="12.9"/><rect class="cls-4" x="16.18" y="15.06" width="11.79" height="5.11" rx="1.16" transform="translate(18.92 -10.45) rotate(45)"/><line class="cls-4" x1="15.69" y1="18.02" x2="21.15" y2="23.48"/><line class="cls-4" x1="13.74" y1="19.98" x2="19.2" y2="25.44"/><line class="cls-4" x1="11.78" y1="21.93" x2="17.24" y2="27.39"/><line class="cls-4" x1="9.83" y1="23.89" x2="15.29" y2="29.35"/><circle class="cls-5" cx="9.09" cy="30.09" r="1.16"/><rect class="cls-1" x="28.15" y="21.09" width="6.93" height="3.61" rx="0.76" transform="translate(25.45 -15.65) rotate(45)"/><rect class="cls-1" x="24.56" y="24.68" width="6.93" height="3.61" rx="0.76" transform="translate(26.94 -12.06) rotate(45)"/><rect class="cls-1" x="20.98" y="28.27" width="6.93" height="3.61" rx="0.76" transform="translate(28.42 -8.48) rotate(45)"/><rect class="cls-1" x="17.39" y="31.86" width="6.93" height="3.61" rx="0.76" transform="translate(29.91 -4.89) rotate(45)"/><circle class="cls-5" cx="40.27" cy="5.13" r="1.03"/><circle class="cls-5" cx="47.26" cy="1.82" r="1.82"/><circle class="cls-5" cx="32.68" cy="2.29" r="1.07"/></g></g></svg>