<svg xmlns="http://www.w3.org/2000/svg" viewBox="0 0 31.85 49.69"><defs><style>.cls-1{fill:#6279dd;}.cls-2,.cls-5{fill:none;}.cls-2{stroke:#6279dd;stroke-linecap:round;stroke-linejoin:round;stroke-width:2px;}.cls-3{fill:#2a9bdb;}.cls-4{fill:#fff;}.cls-5{stroke:#fff;stroke-miterlimit:10;}</style></defs><title>svg-1_1</title><g id="Layer_2" data-name="Layer 2"><g id="Layer_1-2" data-name="Layer 1"><circle class="cls-1" cx="24.2" cy="7.66" r="1.63"/><circle class="cls-1" cx="24.2" cy="7.66" r="1.63"/><circle class="cls-1" cx="29.11" cy="2.75" r="2.75"/><circle class="cls-1" cx="29.11" cy="9.28" r="0.58"/><line class="cls-2" x1="13.79" y1="14.55" x2="16.03" y2="14.55"/><line class="cls-2" x1="16.05" y1="17.05" x2="21.48" y2="17.05"/><path class="cls-3" d="M26.65,21.45V41.06A1.9,1.9,0,0,1,24.76,43H19.62A11.28,11.28,0,0,0,10,30V21.45a1.89,1.89,0,0,1,1.89-1.89H24.76A1.89,1.89,0,0,1,26.65,21.45Z"/><circle class="cls-1" cx="16.41" cy="44.3" r="0.91"/><circle class="cls-1" cx="22.59" cy="41.33" r="1.61"/><circle class="cls-1" cx="9.7" cy="43.35" r="0.94"/><path class="cls-2" d="M19.25,14.55H25.8a3.08,3.08,0,0,1,3.08,3.08v28a3.08,3.08,0,0,1-3.08,3.09H16.91"/><path class="cls-2" d="M7.37,28.47V17.63a3.08,3.08,0,0,1,3.09-3.08h.44"/><circle class="cls-1" cx="8.13" cy="40.56" r="8.13"/><path class="cls-4" d="M5.27,44.15v-1.9a4.5,4.5,0,0,0,1.15.52,3.56,3.56,0,0,0,1.08.17,2.18,2.18,0,0,0,1-.17.54.54,0,0,0,.36-.52.49.49,0,0,0-.16-.37,2,2,0,0,0-.42-.26,5.15,5.15,0,0,0-.56-.2,5.62,5.62,0,0,1-.58-.19,6.72,6.72,0,0,1-.8-.37,2.22,2.22,0,0,1-.58-.46,1.79,1.79,0,0,1-.35-.6,2.36,2.36,0,0,1-.12-.8,2.11,2.11,0,0,1,.27-1.1,2.31,2.31,0,0,1,.74-.75,3.33,3.33,0,0,1,1.06-.43,5.68,5.68,0,0,1,1.24-.14,7.26,7.26,0,0,1,1,.08,7.43,7.43,0,0,1,1,.22v1.81a4,4,0,0,0-1-.39,4.36,4.36,0,0,0-1-.13,2.86,2.86,0,0,0-.43,0,1.52,1.52,0,0,0-.36.12.63.63,0,0,0-.25.2.46.46,0,0,0-.08.28.48.48,0,0,0,.13.35,1.07,1.07,0,0,0,.35.26,2.88,2.88,0,0,0,.47.19l.53.18a6.64,6.64,0,0,1,.84.35,2.61,2.61,0,0,1,.65.46,1.65,1.65,0,0,1,.41.6,2.09,2.09,0,0,1,.15.83,2.18,2.18,0,0,1-.29,1.15A2.42,2.42,0,0,1,10,44a3.59,3.59,0,0,1-1.12.44,6.28,6.28,0,0,1-1.32.14A6.67,6.67,0,0,1,5.27,44.15Z"/><line class="cls-5" x1="8.18" y1="34.86" x2="8.18" y2="36.58"/><line class="cls-5" x1="8.18" y1="44.54" x2="8.18" y2="46.25"/></g></g></svg>