<svg xmlns="http://www.w3.org/2000/svg" viewBox="0 0 242.88 204.94"><defs><style>.cls-1,.cls-3,.cls-7{fill:none;}.cls-2{fill:#29abe2;}.cls-2,.cls-3,.cls-4,.cls-7{stroke:#6279dd;stroke-miterlimit:10;}.cls-2,.cls-3,.cls-4{stroke-width:3px;}.cls-4{fill:#fff;}.cls-5{fill:#6279dd;}.cls-6{font-size:12px;fill:#666;font-family:TrebuchetMS-Bold, Trebuchet MS;font-weight:700;}.cls-7{stroke-width:6px;}</style></defs><title>Analysis and update</title><g id="Layer_2" data-name="Layer 2"><g id="Layer_1-2" data-name="Layer 1"><polyline class="cls-1" points="105.92 0.03 105.96 0.01 105.99 0"/><path class="cls-2" d="M241.38,7.19V21.45H93.86V7.19a5.52,5.52,0,0,1,5.52-5.51H235.87A5.51,5.51,0,0,1,241.38,7.19Z"/><path class="cls-3" d="M241.38,21.45v86.12a5.51,5.51,0,0,1-5.51,5.51H99.38a5.52,5.52,0,0,1-5.52-5.51V21.45Z"/><circle class="cls-4" cx="107.08" cy="11.76" r="4.18"/><circle class="cls-4" cx="122.78" cy="11.76" r="4.18"/><circle class="cls-4" cx="138.49" cy="11.76" r="4.18"/><line class="cls-3" x1="206.17" y1="7.57" x2="211.87" y2="7.57"/><path class="cls-3" d="M216.43,7.57h15.38A3.45,3.45,0,0,1,235.25,11v4"/><path class="cls-3" d="M235.25,64.22v39a4.35,4.35,0,0,1-4.35,4.35H140.63"/><rect class="cls-3" x="10.76" y="110.15" width="58.02" height="93.28" rx="6.24"/><rect class="cls-2" x="111.26" y="50.09" width="27.23" height="30.38"/><rect class="cls-2" x="21.27" y="124.79" width="37" height="30.38"/><rect class="cls-2" x="21.27" y="163.72" width="37" height="15.19"/><rect class="cls-5" x="155.35" y="48.64" width="61.08" height="5.72"/><rect class="cls-5" x="155.35" y="57.64" width="61.08" height="5.72"/><rect class="cls-5" x="155.35" y="66.64" width="61.08" height="5.72"/><rect class="cls-5" x="21.27" y="189.22" width="37" height="5.72"/><rect class="cls-2" x="181.33" y="90.19" width="41.01" height="7.6"/><text class="cls-6" transform="translate(108.76 38.97)">News</text><text class="cls-6" transform="translate(155.35 38.97)">Arcticles</text><path class="cls-7" d="M45,20.11c1.18-.05,2.36-.06,3.52,0"/><path class="cls-7" d="M8.89,86.15A44.08,44.08,0,0,1,45,20.11"/><polygon class="cls-5" points="48.48 10.04 48.48 30.06 65.15 21.63 48.48 10.04"/><path class="cls-7" d="M127.72,188.53c-1-.22-2-.48-3-.77"/><path class="cls-7" d="M173,140.8a38.54,38.54,0,0,1-45.3,47.73"/><polygon class="cls-5" points="122.48 196.25 126.98 179.33 111 182.72 122.48 196.25"/></g></g></svg>