<svg xmlns="http://www.w3.org/2000/svg" viewBox="0 0 307.17 262.65"><defs><style>.cls-1,.cls-3,.cls-4,.cls-5,.cls-8{fill:none;}.cls-1,.cls-5{stroke:#666;}.cls-1,.cls-3,.cls-5{stroke-miterlimit:10;}.cls-1,.cls-8{stroke-width:2px;}.cls-2{fill:#6279dd;}.cls-3,.cls-4,.cls-8{stroke:#6279dd;}.cls-4,.cls-8{stroke-linecap:round;stroke-linejoin:round;}.cls-6{fill:#2a9bdb;}.cls-7{font-size:7.07px;fill:#666;font-family:Tahoma-Bold, Tahoma;font-weight:700;}</style></defs><title>SEO &amp;amp; content Generation-svg</title><g id="Layer_2" data-name="Layer 2"><g id="Layer_1-2" data-name="Layer 1"><path class="cls-1" d="M155.24,24.6a126.8,126.8,0,0,1,21.89-10.53"/><path class="cls-1" d="M104.81,81.36A127.82,127.82,0,0,1,126.5,48.29"/><path class="cls-1" d="M93.56,137.8c0-1.28,0-2.56,0-3.84a128.4,128.4,0,0,1,1.65-20.6"/><path class="cls-1" d="M105.48,188a127.3,127.3,0,0,1-7.94-22.09"/><path class="cls-1" d="M148.57,239a128.49,128.49,0,0,1-27.81-26.18"/><path class="cls-1" d="M211.65,6.61q4.74-.35,9.55-.35a127.19,127.19,0,0,1,85.3,32.67"/><path class="cls-1" d="M181,255.18A127.91,127.91,0,0,0,306.5,229"/><polygon class="cls-2" points="118.91 195.9 122.14 198.42 122.62 194.58 118.91 195.9"/><path class="cls-2" d="M97.54,149.91c0,1.83-1.48,4.43-3.3,4.43s-3.31-2.6-3.31-4.43a3.31,3.31,0,1,1,6.61,0Z"/><rect class="cls-2" x="99.89" y="102.75" width="9.46" height="1.88" rx="0.73" transform="translate(95.83 250.72) rotate(-131.32)"/><circle class="cls-3" cx="96.82" cy="94.82" r="5.57"/><path class="cls-4" d="M94.2,92.35a3.71,3.71,0,0,1,4.53-.86"/><path class="cls-2" d="M91.71,154.76l-4.85,2.51s-.16,1.56.94,1.56h5.32S91.56,156.33,91.71,154.76Z"/><path class="cls-2" d="M97,154.76l4.86,2.51s.16,1.56-.94,1.56H95.54S97.11,156.33,97,154.76Z"/><polygon class="cls-2" points="93.31 156.09 93.9 158.65 94.9 158.65 95.16 156.09 93.31 156.09"/><path class="cls-5" d="M131.56,28.67h13.12a3.21,3.21,0,0,1,3.21,3.21v6.31a3.21,3.21,0,0,1-3.21,3.21h-12a3.21,3.21,0,0,1-3.21-3.21V30.74A2.07,2.07,0,0,1,131.56,28.67Z"/><rect class="cls-2" x="132.64" y="31.17" width="12.27" height="1.14"/><rect class="cls-2" x="136.9" y="33.27" width="8" height="1.14"/><rect class="cls-2" x="136.9" y="35.38" width="8" height="1.14"/><rect class="cls-2" x="138.77" y="37.48" width="6.13" height="1.14"/><line class="cls-4" x1="135.76" y1="37.33" x2="136.46" y2="38.03"/><polygon class="cls-6" points="126.5 29.18 134.62 37.33 135.84 37.33 135.84 36.4 127.48 28.14 126.5 29.18"/><line class="cls-4" x1="126.09" y1="27.66" x2="127.04" y2="28.61"/><line class="cls-4" x1="132.26" y1="32.87" x2="131.24" y2="33.94"/><line class="cls-4" x1="134" y1="36.7" x2="135.06" y2="35.63"/><polyline class="cls-4" points="128.08 28.61 128.66 27.98 131.21 30.54"/><path class="cls-2" d="M194,5.46a4.27,4.27,0,1,0,4.27,4.27A4.27,4.27,0,0,0,194,5.46Zm0,6.88a2.62,2.62,0,1,1,2.61-2.61A2.61,2.61,0,0,1,194,12.34Z"/><rect class="cls-2" x="190.21" y="11.83" width="1.68" height="2.15" rx="0.84" transform="translate(59.3 -126.05) rotate(42.66)"/><rect class="cls-2" x="188.83" y="8.82" width="1.68" height="2.15" rx="0.84" transform="translate(191.22 -180.03) rotate(87.48)"/><rect class="cls-2" x="189.98" y="5.34" width="1.68" height="2.15" rx="0.84" transform="translate(324 -130.39) rotate(132.3)"/><rect class="cls-2" x="192.99" y="3.94" width="1.68" height="2.15" rx="0.84" transform="translate(387.67 0.3) rotate(177.12)"/><rect class="cls-2" x="196.11" y="5.07" width="1.68" height="2.15" rx="0.84" transform="translate(339.33 142.36) rotate(-138.06)"/><rect class="cls-2" x="197.53" y="8.43" width="1.68" height="2.15" rx="0.84" transform="translate(200.07 208.1) rotate(-93.24)"/><rect class="cls-2" x="196.42" y="11.56" width="1.68" height="2.15" rx="0.84" transform="translate(56.88 151.8) rotate(-48.42)"/><rect class="cls-2" x="193.43" y="13" width="1.68" height="2.15" rx="0.84" transform="translate(-0.5 12.21) rotate(-3.6)"/><text class="cls-7" transform="translate(28.09 207.76)">web site analysis</text><text class="cls-7" transform="translate(79.64 252.5)">Link bulding</text><text class="cls-7" transform="translate(0 157.44)">Client requirements</text><text class="cls-7" transform="translate(13.68 100.19)">Keyword search</text><text class="cls-7" transform="translate(54.58 38.32)">Content writing</text><text class="cls-7" transform="translate(99.33 6.1)">Web optimization</text><path class="cls-8" d="M159.46,252.65H151.8a3.48,3.48,0,0,1-3.22-3.69v-1a3.49,3.49,0,0,1,3.22-3.7h10.33a3.49,3.49,0,0,1,3.22,3.7v1c0,.11,0,.22,0,.33"/><path class="cls-8" d="M165.76,243.18h8.67a3.44,3.44,0,0,1,3.12,3.7v1a3.44,3.44,0,0,1-3.12,3.69H163.59a3.3,3.3,0,0,1-3.06-2.92"/><polyline class="cls-3" points="108.98 199.51 114.73 202.39 116.17 199 118.42 199.41 120.76 197.35"/><rect class="cls-2" x="98.68" y="196.87" width="2.62" height="12.21"/><rect class="cls-2" x="103.5" y="200.57" width="2.62" height="8.52"/><rect class="cls-2" x="107.92" y="202.98" width="2.62" height="6.11"/><path class="cls-2" d="M186,138.47c.46,2.85,1.9,4.1,4.21,4.1s3.3-1.3,3.3-3.37c0-2.32-1-3.32-4.39-4.45-5.44-1.81-6.78-4.62-6.78-8.46,0-4.94,2.6-8.31,7.34-8.31,5.31,0,7.42,4.06,7.71,8.21h-4.36c-.21-1.75-.89-3.64-3.47-3.64-1.75,0-2.81,1-2.81,3s.85,2.78,4.08,3.84c5.82,1.95,7.09,5,7.09,9,0,5.19-2.76,8.74-8.05,8.74-5.07,0-7.75-3.55-8.23-8.72Z"/><path class="cls-2" d="M216.65,134.54h-9.56v7.22h10.55l-.52,5H202.89V118.4h14.18v5h-10v6.08h9.56Z"/><path class="cls-2" d="M241.19,132.5c0,7.9-3.34,14.7-9.83,14.7-6.28,0-9.56-6.47-9.56-14.61S225.42,118,231.64,118C237.49,118,241.19,123.8,241.19,132.5Zm-14.93,0c0,5.54,1.72,9.74,5.26,9.74,3.85,0,5.21-4.58,5.21-9.64,0-5.37-1.55-9.59-5.28-9.59S226.26,126.94,226.26,132.47Z"/></g></g></svg>