<svg xmlns="http://www.w3.org/2000/svg" viewBox="0 0 56.32 35.54"><defs><style>.cls-1{fill:#29abe2;}.cls-1,.cls-2,.cls-5{stroke:#6279dd;stroke-linecap:round;stroke-linejoin:round;}.cls-2,.cls-5{fill:none;}.cls-2{stroke-width:3px;}.cls-3{fill:#4c56c9;}.cls-4{fill:#fff;}</style></defs><title>svg-2_1</title><g id="Layer_2" data-name="Layer 2"><g id="Geraphic_Design" data-name="Geraphic Design"><polyline class="cls-1" points="18.23 8.99 51.89 8.99 51.89 15.95 9.48 15.95 9.48 8.99 17.63 9.15"/><polyline class="cls-2" points="16.84 8.99 9.48 8.99 9.48 33.92"/><polyline class="cls-2" points="25.17 8.99 52.47 8.99 52.47 33.92"/><circle class="cls-3" cx="1.36" cy="8.56" r="1.36"/><circle class="cls-3" cx="7.77" cy="4.78" r="0.96"/><circle class="cls-3" cx="5.29" cy="17.77" r="0.96"/><circle class="cls-3" cx="49.49" cy="0.96" r="0.96"/><circle class="cls-3" cx="54.4" cy="4.78" r="1.92"/><circle class="cls-3" cx="44.1" cy="2.87" r="0.94"/><circle class="cls-4" cx="15.48" cy="12.53" r="0.87"/><circle class="cls-4" cx="19.45" cy="12.53" r="0.87"/><circle class="cls-4" cx="23.43" cy="12.53" r="0.87"/><line class="cls-2" x1="9.48" y1="16.28" x2="52.47" y2="16.28"/><line class="cls-5" x1="19.36" y1="32.57" x2="17.57" y2="34.45"/><line class="cls-5" x1="17.24" y1="30.81" x2="14.74" y2="31.46"/><line class="cls-5" x1="16.38" y1="28.2" x2="13.92" y2="27.42"/><line class="cls-5" x1="17.04" y1="25.53" x2="15.36" y2="23.56"/><line class="cls-5" x1="18.79" y1="23.72" x2="18.2" y2="21.2"/><line class="cls-5" x1="21.17" y1="22.92" x2="21.81" y2="20.41"/><line class="cls-5" x1="23.65" y1="23.3" x2="25.37" y2="21.37"/><line class="cls-5" x1="25.68" y1="24.78" x2="28.1" y2="23.86"/><polyline class="cls-5" points="24.08 34.45 20.79 26.84 28.36 30.81"/><line class="cls-5" x1="28.66" y1="35.04" x2="20.79" y2="26.84"/><line class="cls-5" x1="32.69" y1="24.32" x2="46.25" y2="24.32"/><line class="cls-5" x1="32.69" y1="27.81" x2="46.25" y2="27.81"/><line class="cls-5" x1="32.69" y1="31.46" x2="39.26" y2="31.46"/></g></g></svg>