<svg xmlns="http://www.w3.org/2000/svg" viewBox="0 0 61.59 34.52"><defs><style>.cls-1{fill:#6279dd;}.cls-2,.cls-4{fill:none;}.cls-2{stroke:#2f9bc1;stroke-miterlimit:10;}.cls-2,.cls-3,.cls-4{stroke-linecap:round;}.cls-3{fill:#29abe2;}.cls-3,.cls-4{stroke:#6279dd;stroke-linejoin:round;}.cls-4{stroke-width:3px;}.cls-5{fill:#4c56c9;}.cls-6{fill:#fff;}</style></defs><title>svg-1_2</title><g id="Layer_2" data-name="Layer 2"><g id="Geraphic_Design" data-name="Geraphic Design"><rect class="cls-1" x="34.09" y="27.73" width="1.85" height="5.79"/><rect class="cls-1" x="36.83" y="23.78" width="1.85" height="9.74"/><rect class="cls-1" x="39.57" y="26.74" width="1.85" height="6.78"/><line class="cls-2" x1="27.5" y1="20.32" x2="32.77" y2="20.32"/><line class="cls-2" x1="27.5" y1="22.37" x2="32.77" y2="22.37"/><line class="cls-2" x1="27.5" y1="24.42" x2="32.77" y2="24.42"/><circle class="cls-1" cx="18.96" cy="8.17" r="1.47"/><circle class="cls-1" cx="19.73" cy="20.32" r="1.47"/><circle class="cls-1" cx="24.07" cy="10" r="1"/><circle class="cls-1" cx="22.55" cy="2.13" r="1.77"/><path class="cls-1" d="M22.23,25.23h-5a2.51,2.51,0,0,1,5,0Z"/><rect class="cls-3" x="17.22" y="28.54" width="5" height="5"/><rect class="cls-3" x="24.07" y="28.54" width="5" height="5"/><polyline class="cls-3" points="43.65 14.48 9.79 14.48 9.79 7.29 18.21 7.45 18.83 7.29 47.93 7.29"/><polyline class="cls-4" points="17.38 7.29 9.79 7.29 9.79 33.02"/><line class="cls-4" x1="54.17" y1="33.02" x2="54.17" y2="16.34"/><line class="cls-4" x1="47.93" y1="7.29" x2="25.99" y2="7.29"/><circle class="cls-5" cx="1.41" cy="6.84" r="1.41"/><circle class="cls-5" cx="8.02" cy="2.94" r="0.99"/><circle class="cls-5" cx="5.46" cy="16.35" r="0.99"/><circle class="cls-5" cx="45.53" cy="0.97" r="0.97"/><circle class="cls-6" cx="15.98" cy="10.95" r="0.9"/><circle class="cls-6" cx="20.08" cy="10.95" r="0.9"/><circle class="cls-6" cx="24.19" cy="10.95" r="0.9"/><line class="cls-4" x1="43.44" y1="14.82" x2="9.79" y2="14.82"/><path class="cls-1" d="M61.53,1.15l-2,3L56.4,8.91l-1.66,2.53h0L51.06,17a2.29,2.29,0,0,1-3.53.35h0a2.28,2.28,0,0,1,0-3.2l1.77-1.78L52.2,9.5,54.74,7,57.08,4.6,60.94.71C61.27.4,61.77.8,61.53,1.15Z"/></g></g></svg>