<svg xmlns="http://www.w3.org/2000/svg" viewBox="0 0 45.14 44.05"><defs><style>.cls-1{fill:#29abe2;stroke:#6279dd;stroke-linejoin:round;}.cls-1,.cls-6{stroke-linecap:round;}.cls-2{fill:#6279dd;}.cls-3{fill:#2f9bc1;}.cls-4,.cls-5,.cls-6{fill:none;}.cls-4,.cls-6{stroke:#2f9bc1;stroke-miterlimit:10;}.cls-4{stroke-width:2px;}</style></defs><title>svg-3_2</title><g id="Layer_2" data-name="Layer 2"><g id="Geraphic_Design" data-name="Geraphic Design"><polyline class="cls-1" points="2.49 40.31 0.5 40.31 1.5 43.55 39.4 43.55 41.1 40.31 39.4 40.31"/><path class="cls-2" d="M23.65,39a.93.93,0,0,0-.47.11h8.36V39Zm-17.18,0v.07h6.65Zm31.91-17V39H23.65a.93.93,0,0,0-.47.11l-.13.08-.73.53H18.59l-.69-.42a1,1,0,0,0-.52-.15l-4.26,0-6.65-.07L5,39H3.51V16.93H28.88v-2H2.49a1,1,0,0,0-1,1V40a1,1,0,0,0,1,1l14.6.14.68.42a1,1,0,0,0,.53.15h4.36a1,1,0,0,0,.59-.19l.73-.52H39.4a1,1,0,0,0,1-1v-18Z"/><circle class="cls-2" cx="8.6" cy="8.62" r="1.63"/><circle class="cls-2" cx="14.24" cy="10.64" r="1.11"/><circle class="cls-2" cx="12.57" cy="1.95" r="1.95"/><circle class="cls-3" cx="36.27" cy="14.92" r="3.33"/><path class="cls-3" d="M13.42,35.78h-6V30.31a6,6,0,0,1,4.24,1.77A5.85,5.85,0,0,1,13.42,35.78Z"/><path class="cls-4" d="M7.46,27.07a9.49,9.49,0,0,1,6.76,2.82A9.37,9.37,0,0,1,17,35.78"/><path class="cls-4" d="M7.46,23a14,14,0,0,1,10,4.15,13.79,13.79,0,0,1,4,8.66"/><path class="cls-3" d="M41.69,13.31H41a4.77,4.77,0,0,0-1.31-2.37,4.88,4.88,0,0,0-6.9,0,4.75,4.75,0,0,0-1.31,2.37h-.65a5.45,5.45,0,0,1,1.5-2.82,5.39,5.39,0,0,1,3.91-1.62,5.55,5.55,0,0,1,5.42,4.44Z"/><polyline class="cls-5" points="45.14 10.24 41.69 10.24 41.03 10.24 31.51 10.24 30.86 10.24 28.3 10.24"/><polyline class="cls-6" points="30.13 11.62 31.16 13.31 32.96 12.08"/><polyline class="cls-5" points="45.14 10.24 41.69 10.24 41.03 10.24 31.51 10.24 30.86 10.24 28.3 10.24"/><polyline class="cls-6" points="30.13 11.62 31.16 13.31 32.96 12.08"/><path class="cls-3" d="M30.79,16.65h.66A4.88,4.88,0,0,0,39.66,19,4.7,4.7,0,0,0,41,16.65h.65a5.44,5.44,0,0,1-1.5,2.83,5.75,5.75,0,0,1-1.79,1.2,5.6,5.6,0,0,1-2.12.42,5.49,5.49,0,0,1-3.9-1.62A5.43,5.43,0,0,1,30.79,16.65Z"/><polyline class="cls-6" points="42.35 18.35 41.32 16.65 39.52 17.89"/></g></g></svg>