<svg xmlns="http://www.w3.org/2000/svg" viewBox="0 0 45.64 31.16"><defs><style>.cls-1,.cls-2,.cls-5{fill:none;stroke-miterlimit:10;}.cls-1,.cls-5{stroke:#4ba8e3;}.cls-1,.cls-2{stroke-width:2px;}.cls-2,.cls-7{stroke:#6279dd;stroke-linecap:round;}.cls-3{fill:#4ba8e3;}.cls-4{fill:#fefefe;}.cls-6{fill:#6279dd;}.cls-7{fill:#29abe2;stroke-linejoin:round;}</style></defs><title>svg-4_2</title><g id="Layer_2" data-name="Layer 2"><g id="Geraphic_Design" data-name="Geraphic Design"><rect class="cls-1" x="4.45" y="2.5" width="36.65" height="22.53"/><path class="cls-2" d="M6.22,1H4.27a.83.83,0,0,0-.83.83V26a.83.83,0,0,0,.83.83H18.85a.82.82,0,0,1,.72.41l.31.53a.82.82,0,0,0,.72.41h4.47a.82.82,0,0,0,.72-.41l.45-.76a.82.82,0,0,1,.72-.41H41.27a.83.83,0,0,0,.83-.83V1.83A.83.83,0,0,0,41.27,1h-2"/><line class="cls-2" x1="42.07" y1="26.79" x2="42.07" y2="26.12"/><path class="cls-2" d="M3.4,26.79H1.46S2.7,30,3.4,30.1s38.93,0,38.93,0,2.34-2.72,2.31-3.58H42.17"/><circle class="cls-3" cx="30.38" cy="14.36" r="3.48"/><polygon class="cls-4" points="30.51 11.53 30.24 11.53 30.24 14.36 30.57 14.37 30.51 11.53"/><polygon class="cls-4" points="32.6 14.51 32.6 14.25 30.38 14.17 30.38 14.56 32.6 14.51"/><circle class="cls-5" cx="30.34" cy="14.38" r="7.06"/><line class="cls-5" x1="30.34" y1="8.31" x2="30.34" y2="9.16"/><line class="cls-5" x1="33.37" y1="9.12" x2="32.95" y2="9.86"/><line class="cls-5" x1="35.59" y1="11.34" x2="34.86" y2="11.76"/><line class="cls-5" x1="36.41" y1="14.36" x2="35.56" y2="14.37"/><line class="cls-5" x1="35.61" y1="17.4" x2="34.87" y2="16.98"/><line class="cls-5" x1="33.4" y1="19.63" x2="32.97" y2="18.89"/><line class="cls-5" x1="30.38" y1="20.45" x2="30.37" y2="19.6"/><line class="cls-5" x1="27.34" y1="19.66" x2="27.76" y2="18.92"/><line class="cls-5" x1="25.11" y1="17.46" x2="25.84" y2="17.03"/><circle class="cls-6" cx="30.37" cy="14.38" r="0.56"/><rect class="cls-7" x="8.17" y="7.32" width="10.68" height="6.44" rx="1.01"/><line class="cls-7" x1="8.17" y1="16.61" x2="18.85" y2="16.61"/><line class="cls-7" x1="8.17" y1="19.26" x2="18.85" y2="19.26"/></g></g></svg>