<svg xmlns="http://www.w3.org/2000/svg" viewBox="0 0 168.42 164.94"><defs><style>.cls-1{fill:#fff;}.cls-10,.cls-11,.cls-12,.cls-13,.cls-14,.cls-15,.cls-16,.cls-17,.cls-18,.cls-19,.cls-2,.cls-20,.cls-21,.cls-22,.cls-3,.cls-4,.cls-5,.cls-6,.cls-7,.cls-8,.cls-9{fill:none;stroke:#fff;stroke-linecap:round;stroke-linejoin:round;}.cls-3{stroke-dasharray:1.13 3.97 5.1 1.13;}.cls-4{stroke-dasharray:3.97 5.1 1.13 3.97 5.1 1.13;}.cls-5{stroke-dasharray:2.04 7.15 9.2 2.04;}.cls-6{stroke-dasharray:7.15 9.2 2.04 7.15 9.2 2.04;}.cls-7{stroke-dasharray:2.24 7.85 10.09 2.24;}.cls-8{stroke-dasharray:7.85 10.09 2.24 7.85 10.09 2.24;}.cls-9{stroke-dasharray:2.13 7.45 9.58 2.13;}.cls-10{stroke-dasharray:7.45 9.58 2.13 7.45 9.58 2.13;}.cls-11{stroke-dasharray:2.1 7.36 9.46 2.1;}.cls-12{stroke-dasharray:7.36 9.46 2.1 7.36 9.46 2.1;}.cls-13{stroke-dasharray:2.12 7.41 9.52 2.12;}.cls-14{stroke-dasharray:7.41 9.52 2.12 7.41 9.52 2.12;}.cls-15{stroke-dasharray:1.21 4.25 5.46 1.21;}.cls-16{stroke-dasharray:4.25 5.46 1.21 4.25 5.46 1.21;}.cls-17{stroke-dasharray:1.18 4.14 5.32 1.18;}.cls-18{stroke-dasharray:4.14 5.32 1.18 4.14 5.32 1.18;}.cls-19{stroke-dasharray:2.1 7.36 9.47 2.1;}.cls-20{stroke-dasharray:7.36 9.47 2.1 7.36 9.47 2.1;}.cls-21{stroke-dasharray:1.82 6.35 8.17 1.82;}.cls-22{stroke-dasharray:6.35 8.17 1.82 6.35 8.17 1.82;}</style></defs><title>Connections</title><g id="Layer_2" data-name="Layer 2"><g id="TopMain"><rect class="cls-1" y="82.32" width="21.5" height="13.25" rx="4.86"/><ellipse class="cls-1" cx="10.75" cy="74.02" rx="6.38" ry="6.49"/><ellipse class="cls-1" cx="10.71" cy="102.92" rx="2.92" ry="2.97"/><path class="cls-1" d="M88,95.57H79.46A6.58,6.58,0,0,1,73,88.94h0a6.57,6.57,0,0,1,6.51-6.62H88a6.57,6.57,0,0,1,6.51,6.62h0A6.58,6.58,0,0,1,88,95.57Z"/><ellipse class="cls-1" cx="83.7" cy="74.02" rx="6.38" ry="6.49"/><ellipse class="cls-1" cx="83.66" cy="102.92" rx="2.92" ry="2.97"/><ellipse class="cls-1" cx="157.77" cy="102.44" rx="2.92" ry="2.97"/><rect class="cls-1" x="36.3" y="15.3" width="21.5" height="13.25" rx="4.86" transform="translate(0.2 -0.42) rotate(0.52)"/><ellipse class="cls-1" cx="47.18" cy="7" rx="6.38" ry="6.49"/><ellipse class="cls-1" cx="46.9" cy="35.37" rx="2.92" ry="2.97"/><rect class="cls-1" x="110.14" y="14.78" width="21.5" height="13.25" rx="4.86" transform="translate(-0.32 1.88) rotate(-0.89)"/><ellipse class="cls-1" cx="120.67" cy="6.49" rx="6.38" ry="6.49"/><ellipse class="cls-1" cx="121.03" cy="34.85" rx="2.92" ry="2.97"/><rect class="cls-1" x="146.9" y="81.84" width="21.5" height="13.25" rx="4.86" transform="translate(-0.72 1.3) rotate(-0.47)"/><ellipse class="cls-1" cx="157.54" cy="73.55" rx="6.38" ry="6.49"/><ellipse class="cls-1" cx="10.71" cy="62.04" rx="2.92" ry="2.97"/><ellipse class="cls-1" cx="83.66" cy="62.04" rx="2.92" ry="2.97"/><ellipse class="cls-1" cx="157.44" cy="61.56" rx="2.92" ry="2.97"/><rect class="cls-1" x="110.54" y="151.56" width="21.5" height="13.25" rx="4.86" transform="translate(2.56 -1.93) rotate(0.92)"/><ellipse class="cls-1" cx="121.52" cy="143.27" rx="6.38" ry="6.49"/><path class="cls-1" d="M51,164.94l-8.49-.24a6.59,6.59,0,0,1-6.32-6.82h0a6.55,6.55,0,0,1,6.69-6.43l8.49.24a6.59,6.59,0,0,1,6.32,6.82h0A6.56,6.56,0,0,1,51,164.94Z"/><ellipse class="cls-1" cx="47.4" cy="143.28" rx="6.38" ry="6.49"/><ellipse class="cls-1" cx="121.06" cy="128.06" rx="2.92" ry="2.97"/><ellipse class="cls-1" cx="46.6" cy="128.06" rx="2.92" ry="2.97"/><line class="cls-2" x1="46.6" y1="128.06" x2="43.73" y2="126.05"/><line class="cls-3" x1="39.55" y1="123.13" x2="30.74" y2="116.95"/><line class="cls-4" x1="30.28" y1="116.63" x2="14.04" y2="105.25"/><polyline class="cls-2" points="13.57 104.93 10.71 102.92 14.21 102.92"/><line class="cls-5" x1="23.41" y1="102.92" x2="42.82" y2="102.92"/><polyline class="cls-6" points="43.84 102.92 83.66 102.92 153.19 102.47"/><polyline class="cls-2" points="154.21 102.47 157.71 102.44 154.91 104.54"/><line class="cls-7" x1="146.83" y1="110.6" x2="129.78" y2="123.37"/><polyline class="cls-8" points="128.88 124.05 121.06 129.91 51.22 129.91"/><polyline class="cls-2" points="50.1 129.91 46.6 129.91 49.99 129.07"/><line class="cls-9" x1="59.29" y1="126.77" x2="78.91" y2="121.92"/><line class="cls-10" x1="79.95" y1="121.67" x2="153.28" y2="103.54"/><line class="cls-2" x1="154.31" y1="103.28" x2="157.71" y2="102.44"/><line class="cls-2" x1="121.06" y1="128.06" x2="117.65" y2="127.28"/><line class="cls-11" x1="108.42" y1="125.18" x2="88.95" y2="120.74"/><line class="cls-12" x1="87.92" y1="120.51" x2="15.15" y2="103.93"/><line class="cls-2" x1="14.12" y1="103.7" x2="10.71" y2="102.92"/><line class="cls-2" x1="10.71" y1="62.04" x2="14.11" y2="61.2"/><line class="cls-13" x1="23.36" y1="58.93" x2="42.88" y2="54.13"/><line class="cls-14" x1="43.91" y1="53.87" x2="116.87" y2="35.94"/><polyline class="cls-2" points="117.89 35.68 121.29 34.85 118.45 36.9"/><line class="cls-15" x1="114.03" y1="40.1" x2="104.69" y2="46.84"/><line class="cls-16" x1="104.2" y1="47.2" x2="86.99" y2="59.63"/><polyline class="cls-2" points="86.5 59.99 83.66 62.04 80.83 59.98"/><line class="cls-17" x1="76.52" y1="56.86" x2="67.43" y2="50.26"/><line class="cls-18" x1="66.96" y1="49.92" x2="50.21" y2="37.77"/><polyline class="cls-2" points="49.74 37.42 46.9 35.37 50.31 36.18"/><line class="cls-19" x1="59.52" y1="38.37" x2="78.97" y2="42.99"/><line class="cls-20" x1="79.99" y1="43.23" x2="152.66" y2="60.51"/><polyline class="cls-2" points="153.69 60.75 157.09 61.56 154.28 59.47"/><line class="cls-21" x1="147.74" y1="54.58" x2="133.92" y2="44.27"/><polyline class="cls-22" points="133.19 43.73 121.29 34.85 46.9 35.37 14.26 59.42"/><line class="cls-2" x1="13.53" y1="59.96" x2="10.71" y2="62.04"/></g></g></svg>