<svg xmlns="http://www.w3.org/2000/svg" viewBox="0 0 18.13 18.13"><defs><style>.cls-1{fill:#4d5eff;}.cls-2{fill:#fff;}</style></defs><title>FooterIcon2</title><g id="Layer_2" data-name="Layer 2"><g id="Layer_1-2" data-name="Layer 1"><circle class="cls-1" cx="9.06" cy="9.06" r="9.06"/><path class="cls-2" d="M4.44,5.2A5.39,5.39,0,0,0,9.06,7.59a2.19,2.19,0,0,1,1.82-2.81,1.92,1.92,0,0,1,1.85.7A5.3,5.3,0,0,0,14,4.93a1.3,1.3,0,0,1-.92,1.24s.29.19,1.27-.32c0,0,0,.5-1.11,1.25a6.73,6.73,0,0,1-2.82,6.22A5.58,5.58,0,0,1,4,13.39a6.12,6.12,0,0,0,2.93-1.18,2.22,2.22,0,0,1-2.05-1.65s1,.27,1.29,0c0,0-2.07-.52-2-2.33,0,0,.88.45,1.25.26A2.29,2.29,0,0,1,4.44,5.2Z"/></g></g></svg>