<svg xmlns="http://www.w3.org/2000/svg" xmlns:xlink="http://www.w3.org/1999/xlink" viewBox="0 0 411.24 307.38"><defs><style>.cls-1{fill:#b7b7b7;}.cls-1,.cls-3{opacity:0.49;}.cls-2{fill:#459dff;}.cls-3{fill:#c6c4c4;}.cls-10,.cls-4,.cls-9{fill:#fff;}.cls-11,.cls-13,.cls-14,.cls-5,.cls-6,.cls-7{fill:none;}.cls-10,.cls-5,.cls-6{stroke:#fff;}.cls-14,.cls-5{stroke-linecap:round;stroke-linejoin:round;}.cls-5{stroke-width:3px;}.cls-10,.cls-11,.cls-13,.cls-6{stroke-miterlimit:10;}.cls-10,.cls-11,.cls-6{stroke-width:2px;}.cls-8{font-size:19px;font-family:SimplifiedArabic-Bold, Simplified Arabic;font-weight:700;}.cls-12,.cls-8{fill:#3694f2;}.cls-12,.cls-9{font-size:10px;font-family:SimplifiedArabic, Simplified Arabic;}.cls-11{stroke:#3694f2;}.cls-13,.cls-14{stroke:#626c7a;stroke-width:12px;}.cls-15{fill:#c1c1c1;}.cls-15,.cls-16,.cls-17{opacity:0.29;}.cls-16{fill:#626c7a;}.cls-17{fill:url(#linear-gradient);}</style><linearGradient id="linear-gradient" x1="92.54" y1="233.16" x2="68.3" y2="249.24" gradientUnits="userSpaceOnUse"><stop offset="0" stop-color="#fff"/><stop offset="1" stop-color="#fff" stop-opacity="0"/></linearGradient></defs><title>HomeMainWebOpt</title><g id="Layer_2" data-name="Layer 2"><g id="WebOPptimize"><path class="cls-1" d="M288.16,40.48V243.32c0,6.61-4.08,12-9.12,12H0V40.48Z" transform="translate(0 -5.51)"/><rect class="cls-2" x="307.39" y="37.36" width="102.58" height="53.99" rx="3.9"/><path class="cls-2" d="M288.16,13.85v22H0V6.63H281.67C285.25,6.63,288.16,9.86,288.16,13.85Z" transform="translate(0 -5.51)"/><path class="cls-2" d="M411.24,112.85v11.76H307.54V112.85c0-3.41,1.47-6.2,3.26-6.2H408C409.77,106.65,411.24,109.44,411.24,112.85Z" transform="translate(0 -5.51)"/><path class="cls-3" d="M411.24,124.61V247.75c0,2.84-1.47,5.16-3.26,5.16H310.8c-1.79,0-3.26-2.32-3.26-5.16V124.61Z" transform="translate(0 -5.51)"/><circle class="cls-4" cx="32.45" cy="13.66" r="5.07"/><circle class="cls-4" cx="51.29" cy="13.66" r="5.07"/><circle class="cls-4" cx="70.14" cy="13.66" r="5.07"/><circle class="cls-4" cx="61.66" cy="131.93" r="5.07"/><circle class="cls-4" cx="323.03" cy="53.01" r="3.25"/><polyline class="cls-5" points="322.05 124.32 322.05 153.83 381.85 153.83"/><polyline class="cls-6" points="325.53 145.16 338.57 145.16 344.13 139.08 354.14 143.69 363.12 132.62 372.32 138.89 383.87 127.5"/><circle class="cls-2" cx="344.07" cy="139.41" r="2.47"/><circle class="cls-2" cx="363.23" cy="132.97" r="2.42"/><circle class="cls-2" cx="383.87" cy="127.5" r="2.22"/><line class="cls-7" x1="221.93" y1="214.68" x2="219.95" y2="211.62"/><rect class="cls-4" x="321.04" y="201.88" width="61.82" height="35.66" rx="1.5"/><rect class="cls-4" x="336.83" y="50.72" width="66.57" height="4.59" rx="2.29"/><circle class="cls-4" cx="323.77" cy="169.37" r="3.25"/><rect class="cls-2" x="335.22" y="208.97" width="42.58" height="4.59" rx="0.98"/><rect class="cls-2" x="335.22" y="217.57" width="42.58" height="4.59" rx="0.98"/><rect class="cls-2" x="335.22" y="226.17" width="42.58" height="4.59" rx="0.98"/><rect class="cls-4" x="336.96" y="178.25" width="46.47" height="4.59" rx="0.98"/><rect class="cls-4" x="336.96" y="167.08" width="46.47" height="4.59" rx="0.98"/><circle class="cls-4" cx="323.77" cy="180.55" r="3.25"/><rect class="cls-4" x="336.96" y="189.29" width="31" height="4.59" rx="0.98"/><circle class="cls-4" cx="323.77" cy="191.59" r="3.25"/><circle class="cls-2" cx="327.02" cy="210.34" r="2.63"/><circle class="cls-2" cx="327.02" cy="219.86" r="2.63"/><circle class="cls-2" cx="327.02" cy="228.46" r="2.63"/><circle class="cls-4" cx="323.03" cy="65.72" r="3.25"/><circle class="cls-4" cx="323.03" cy="78.71" r="3.25"/><rect class="cls-4" x="336.83" y="63.42" width="23.15" height="4.59" rx="2.29"/><rect class="cls-4" x="363.28" y="63.42" width="39.53" height="4.59" rx="2.29"/><circle class="cls-4" cx="322.05" cy="109.84" r="3.25"/><circle class="cls-4" cx="333.71" cy="109.84" r="3.25"/><rect class="cls-4" x="336.21" y="76.13" width="40.6" height="4.59" rx="2.29"/><rect class="cls-4" x="381.12" y="76.13" width="21.69" height="4.59" rx="2.29"/><path class="cls-2" d="M314.19,34.48l-1.5-.39a10.7,10.7,0,0,1-2.81-1.17,12,12,0,0,1-2.44-2l2-3A9,9,0,0,0,312.4,30a8.54,8.54,0,0,0,3.47.7,6,6,0,0,0,3.92-1.14,3.94,3.94,0,0,0,1.4-3.23v0a3.85,3.85,0,0,0-.64-2.35,3.76,3.76,0,0,0-1.63-1.29,15,15,0,0,0-2.58-.77.2.2,0,0,0-.11,0l-.1,0-.24-.06a21.47,21.47,0,0,1-3.8-1.1,5.58,5.58,0,0,1-2.51-2.25,8.67,8.67,0,0,1-1-4.64v0a9.77,9.77,0,0,1,1-4.5,6.58,6.58,0,0,1,2.83-2.84,9.45,9.45,0,0,1,4.46-1,9.35,9.35,0,0,1,2.46.33,11,11,0,0,1,2.38,1A13.76,13.76,0,0,1,324,8.47l-1.86,3.17a10.49,10.49,0,0,0-2.65-1.79,6.34,6.34,0,0,0-2.65-.6,5.38,5.38,0,0,0-3.7,1.17,4.14,4.14,0,0,0-1.32,3.29v0a3.52,3.52,0,0,0,.68,2.3,4.09,4.09,0,0,0,1.69,1.24,22,22,0,0,0,2.83.83l.12,0,.12,0,.17,0,.18,0a16.33,16.33,0,0,1,3.53,1.25,5.94,5.94,0,0,1,2.37,2.33,8.68,8.68,0,0,1,.95,4.4v0a9.16,9.16,0,0,1-1,4.44,6.61,6.61,0,0,1-2.92,2.81,10,10,0,0,1-4.62,1Z" transform="translate(0 -5.51)"/><path class="cls-2" d="M329.06,5.8h3.27V34.19h-3.27Zm1.58,0H344V9.59H330.64Zm0,12.4h11.61V22H330.64Zm0,12.2H344v3.79H330.64Z" transform="translate(0 -5.51)"/><path class="cls-2" d="M352.06,33.18a8.26,8.26,0,0,1-2.87-3.67,13.79,13.79,0,0,1-1-5.49V16a13.87,13.87,0,0,1,1-5.5,8.32,8.32,0,0,1,2.87-3.67,7.78,7.78,0,0,1,8.58,0,8.46,8.46,0,0,1,2.87,3.67,13.87,13.87,0,0,1,1,5.5v8a13.79,13.79,0,0,1-1,5.49,8.41,8.41,0,0,1-2.87,3.67,7.73,7.73,0,0,1-8.58,0Zm6.82-3.41a5.11,5.11,0,0,0,1.7-2.25,8.78,8.78,0,0,0,.6-3.37V15.83a8.76,8.76,0,0,0-.6-3.36,5.11,5.11,0,0,0-1.7-2.25,4.46,4.46,0,0,0-5.07,0,5.11,5.11,0,0,0-1.7,2.25,8.76,8.76,0,0,0-.6,3.36v8.32a8.78,8.78,0,0,0,.6,3.37,5.11,5.11,0,0,0,1.7,2.25,4.46,4.46,0,0,0,5.07,0Z" transform="translate(0 -5.51)"/><text class="cls-8" transform="translate(48.62 67.62)">G<tspan class="cls-4" x="13.3" y="0">oogle</tspan></text><rect class="cls-4" x="114.98" y="56.35" width="114.61" height="11.04" rx="5.52"/><text class="cls-9" transform="translate(76.59 101.88)">Images</text><text class="cls-9" transform="translate(116.72 101.88)">Web</text><text class="cls-9" transform="translate(148.73 101.88)">All</text><line class="cls-10" x1="27.38" y1="108.07" x2="227.68" y2="110.13"/><rect class="cls-4" x="82.98" y="127.35" width="124.56" height="9.16" rx="2.96"/><circle class="cls-2" cx="61.66" cy="155.45" r="5.07"/><rect class="cls-2" x="82.98" y="150.86" width="124.56" height="9.16" rx="2.96"/><circle class="cls-4" cx="61.66" cy="178.96" r="5.07"/><rect class="cls-4" x="82.98" y="174.38" width="124.56" height="9.16" rx="2.96"/><circle class="cls-4" cx="61.66" cy="202.48" r="5.07"/><rect class="cls-4" x="82.98" y="197.9" width="124.56" height="9.16" rx="2.96"/><line class="cls-11" x1="48.62" y1="108.07" x2="68.82" y2="108.07"/><text class="cls-12" transform="translate(52.7 102.6)">All</text><circle class="cls-13" cx="65.27" cy="245.86" r="35.08"/><line class="cls-14" x1="42.48" y1="272.52" x2="13.62" y2="301.38"/><path class="cls-15" d="M73.19,274.65a24.6,24.6,0,0,1-25.95-40Z" transform="translate(0 -5.51)"/><path class="cls-16" d="M89.87,251.36a24.6,24.6,0,0,1-16.68,23.29l-25.95-40a24.59,24.59,0,0,1,42.63,16.72Z" transform="translate(0 -5.51)"/><path class="cls-17" d="M56.57,232.41a20.79,20.79,0,0,1,23.35,33.74" transform="translate(0 -5.51)"/><line class="cls-7" x1="87.69" y1="269.58" x2="86.08" y2="267.09"/></g></g></svg>