<svg xmlns="http://www.w3.org/2000/svg" viewBox="0 0 49.24 31.15"><defs><style>.cls-1{fill:#29abe2;}.cls-1,.cls-2{stroke:#6279dd;stroke-linecap:round;stroke-linejoin:round;}.cls-2,.cls-6{fill:none;}.cls-2{stroke-width:3px;}.cls-3{fill:#4c56c9;}.cls-4{fill:#fff;}.cls-5{fill:#6279dd;}</style></defs><title>svg-2</title><g id="Layer_2" data-name="Layer 2"><g id="Layer_1-2" data-name="Layer 1"><polyline class="cls-1" points="15.94 7.86 45.37 7.86 45.37 13.94 8.29 13.94 8.29 7.86 15.42 8"/><polyline class="cls-2" points="14.72 7.86 8.29 7.86 8.29 29.65"/><polyline class="cls-2" points="22.01 7.86 45.88 7.86 45.88 29.65"/><circle class="cls-3" cx="1.19" cy="7.48" r="1.19"/><circle class="cls-3" cx="6.8" cy="4.18" r="0.84"/><circle class="cls-3" cx="4.62" cy="15.53" r="0.84"/><circle class="cls-3" cx="43.26" cy="0.84" r="0.84"/><circle class="cls-3" cx="47.56" cy="4.18" r="1.68"/><circle class="cls-3" cx="38.56" cy="2.51" r="0.83"/><circle class="cls-4" cx="13.53" cy="10.96" r="0.76"/><circle class="cls-4" cx="17.01" cy="10.96" r="0.76"/><circle class="cls-4" cx="20.48" cy="10.96" r="0.76"/><line class="cls-2" x1="8.29" y1="14.23" x2="45.88" y2="14.23"/><path class="cls-5" d="M33.46,29.53a6.85,6.85,0,0,0-1.27-2.73,7,7,0,0,0-2-1.78,6.94,6.94,0,0,0-2.07-.76A7.59,7.59,0,0,0,27,24.13a7.19,7.19,0,0,0-1.62.14,7,7,0,0,0-2.08.8A6.89,6.89,0,0,0,20,29.66a6.61,6.61,0,0,0-.13,1.1V31h2.66v-.17A4.2,4.2,0,0,1,31,31h2.66A7.31,7.31,0,0,0,33.46,29.53Z"/><path class="cls-5" d="M21.49,31H18v-.83a.5.5,0,0,1,.5-.51l1.51,0H21a.51.51,0,0,1,.51.51Z"/><rect class="cls-5" x="20.44" y="23.77" width="2.7" height="3.46" rx="0.91" transform="translate(55.27 27.68) rotate(134.24)"/><rect class="cls-5" x="25.35" y="21.69" width="2.7" height="3.46" rx="0.91" transform="translate(53.79 46.39) rotate(179.06)"/><rect class="cls-5" x="30.3" y="23.67" width="2.7" height="3.46" rx="0.91" transform="translate(36.87 65.65) rotate(-136.12)"/><path class="cls-5" d="M35.49,31H32l0-.95a.51.51,0,0,1,.5-.52l1,0,1.48,0a.5.5,0,0,1,.52.49Z"/><polyline class="cls-6" points="21.49 31.02 19.9 31.02 18.03 31.02 14.72 31.02"/><polyline class="cls-6" points="40.51 31.02 35.49 31.02 33.62 31.02 32.02 31.02"/><rect class="cls-5" x="33.94" y="18.2" width="8.48" height="3.58" rx="1.49"/><rect class="cls-1" x="12.77" y="18.2" width="5.72" height="5.72"/></g></g></svg>