<svg xmlns="http://www.w3.org/2000/svg" viewBox="0 0 36.16 31.24"><defs><style>.cls-1,.cls-3{fill:#29abe2;}.cls-2{fill:#2f9bc1;}.cls-3,.cls-4,.cls-5{stroke:#6279dd;stroke-linecap:round;stroke-linejoin:round;}.cls-4,.cls-5,.cls-7{fill:none;}.cls-4{stroke-width:2px;}.cls-6{fill:#fff;}.cls-7{stroke:#2f9bc1;stroke-miterlimit:10;}</style></defs><title>svg-1</title><g id="Layer_2" data-name="Layer 2"><g id="Layer_1-2" data-name="Layer 1"><polygon class="cls-1" points="25.03 18.44 25.09 27.94 18.08 27.94 18.08 15.67 25.03 18.44"/><polygon class="cls-1" points="3.22 19.42 6.65 18.17 10.33 20.06 10.33 26.84 3.22 26.84 3.22 19.42"/><polyline class="cls-2" points="18.2 27.94 10.33 27.94 10.33 19.42 18.08 15.44"/><polyline class="cls-3" points="2.22 27.94 0.5 27.94 1.36 30.74 34.19 30.74 35.66 27.94 34.19 27.94"/><polyline class="cls-4" points="34.19 16.67 34.19 27.7 20.54 27.7 19.68 28.32 15.91 28.32 15.11 27.83 2.22 27.7 2.22 19.88 2.22 6.81 20.17 6.81"/><polyline class="cls-5" points="2.22 19.88 6.97 18.14 10.33 19.88 17.83 15.32 25.03 18.56 26.41 13.46"/><polygon class="cls-3" points="23.05 6.81 23.05 13.46 34.19 13.46 34.19 0.5 23.05 0.5 23.05 6.81"/><line class="cls-2" x1="18.08" y1="15.44" x2="25.03" y2="18.56"/><path class="cls-6" d="M31.43,9.86a4.85,4.85,0,0,1-2.32.56,3.2,3.2,0,0,1-2.39-.92,3.28,3.28,0,0,1-.91-2.43,3.41,3.41,0,0,1,3.54-3.53,4.9,4.9,0,0,1,1.87.32V5a3.22,3.22,0,0,0-1.83-.51,2.3,2.3,0,0,0-1.74.7A2.47,2.47,0,0,0,27,7a2.62,2.62,0,0,0,.58,1.8,2,2,0,0,0,1.59.66,2.49,2.49,0,0,0,1.19-.27V7.62h-1.4V6.69h2.5Z"/><line class="cls-7" x1="6.4" y1="10.42" x2="11.44" y2="10.42"/><line class="cls-7" x1="6.4" y1="12.38" x2="11.44" y2="12.38"/><line class="cls-7" x1="6.4" y1="14.34" x2="11.44" y2="14.34"/></g></g></svg>