<svg xmlns="http://www.w3.org/2000/svg" viewBox="0 0 36.62 39.87"><defs><style>.cls-1,.cls-6,.cls-9{fill:#29abe2;}.cls-1,.cls-2,.cls-6,.cls-8{stroke:#6279dd;}.cls-1,.cls-2,.cls-6,.cls-9{stroke-linecap:round;stroke-linejoin:round;}.cls-1,.cls-2,.cls-8{stroke-width:2px;}.cls-2,.cls-8{fill:none;}.cls-3{fill:#426eea;}.cls-4{fill:#8ba5ef;}.cls-5{fill:#6380ea;}.cls-7{fill:#6279dd;}.cls-8{stroke-miterlimit:10;}.cls-9{stroke:#fff;}</style></defs><title>svg-3</title><g id="Layer_2" data-name="Layer 2"><g id="Layer_1-2" data-name="Layer 1"><rect class="cls-1" x="3.69" y="34.86" width="23.65" height="4"/><polyline class="cls-2" points="6.32 7.19 1 7.19 1 25.23 1 29.75 22.83 29.75"/><polyline class="cls-2" points="11.92 7.19 33.03 7.19 33.03 16.17"/><rect class="cls-3" x="5.07" y="10.48" width="23.96" height="4.63" rx="0.35"/><rect class="cls-4" x="5.07" y="16.49" width="5.94" height="6.38" rx="0.35"/><rect class="cls-5" x="13.64" y="16.49" width="6.19" height="6.38" rx="0.35"/><line class="cls-2" x1="1" y1="25.23" x2="22.83" y2="25.23"/><line class="cls-2" x1="8.95" y1="7.31" x2="9.4" y2="7.31"/><circle class="cls-6" cx="12.32" cy="1.13" r="0.63"/><circle class="cls-6" cx="17.04" cy="4" r="0.63"/><circle class="cls-6" cx="8.59" cy="3.38" r="0.44"/><circle class="cls-7" cx="2.64" cy="1.75" r="1.64"/><line class="cls-8" x1="5.97" y1="35.26" x2="5.97" y2="36.86"/><line class="cls-8" x1="8.73" y1="34.86" x2="8.73" y2="36.81"/><line class="cls-8" x1="11.45" y1="34.86" x2="11.45" y2="36.81"/><line class="cls-8" x1="14.11" y1="34.86" x2="14.11" y2="36.81"/><line class="cls-8" x1="16.73" y1="34.86" x2="16.73" y2="36.81"/><line class="cls-8" x1="19.45" y1="34.86" x2="19.45" y2="36.81"/><line class="cls-8" x1="22.08" y1="34.86" x2="22.08" y2="36.81"/><line class="cls-8" x1="24.74" y1="34.86" x2="24.74" y2="36.81"/><polyline class="cls-6" points="21.52 30.32 21.52 32.39 11.92 32.39 11.92 30.32"/><rect class="cls-6" x="23.67" y="17.79" width="12.46" height="14.61"/><line class="cls-9" x1="26.29" y1="20.5" x2="33.46" y2="20.5"/><line class="cls-9" x1="26.29" y1="22.87" x2="33.46" y2="22.87"/><line class="cls-9" x1="26.29" y1="25.23" x2="33.46" y2="25.23"/><line class="cls-9" x1="26.29" y1="27.6" x2="33.46" y2="27.6"/></g></g></svg>