<svg xmlns="http://www.w3.org/2000/svg" viewBox="0 0 37.4 36.64"><defs><style>.cls-1{fill:#29abe2;}.cls-1,.cls-2,.cls-5,.cls-6,.cls-7{stroke:#6279dd;}.cls-1,.cls-2,.cls-7{stroke-miterlimit:10;}.cls-2,.cls-3,.cls-5,.cls-6,.cls-7{fill:none;}.cls-3{stroke:#4969db;}.cls-3,.cls-5,.cls-6,.cls-7{stroke-linecap:round;}.cls-3,.cls-5,.cls-6{stroke-linejoin:round;}.cls-3,.cls-5{stroke-width:2px;}.cls-4{fill:#6279dd;}.cls-8{fill:#2a9bdb;}</style></defs><title>svg-4</title><g id="Layer_2" data-name="Layer 2"><g id="Layer_1-2" data-name="Layer 1"><polyline class="cls-1" points="4.51 33.46 2.86 33.46 3.69 36.14 35.16 36.14 36.57 33.46 35.16 33.46"/><polyline class="cls-2" points="36.43 0.47 36.44 0.46 36.45 0.46"/><polyline class="cls-3" points="4 6.91 1 6.91 1 23.23 22.07 23.23 22.07 6.91 8.85 6.91"/><circle class="cls-4" cx="35.16" cy="1.88" r="1.48"/><circle class="cls-4" cx="28.95" cy="7.49" r="0.88"/><circle class="cls-4" cx="34.28" cy="8.97" r="1.63"/><circle class="cls-4" cx="24.41" cy="1.45" r="1.05"/><line class="cls-3" x1="1" y1="10.52" x2="22.07" y2="10.52"/><polyline class="cls-5" points="25.74 13.42 35.16 13.52 35.16 33.46 22.07 33.46 21.25 34.05 17.63 34.05 16.86 33.58 4.51 33.46 4.51 26.07"/><line class="cls-6" x1="12.57" y1="29.89" x2="19.23" y2="29.89"/><line class="cls-6" x1="21.61" y1="29.89" x2="24.81" y2="29.89"/><line class="cls-7" x1="11.54" y1="27.98" x2="17.11" y2="27.98"/><line class="cls-7" x1="19.23" y1="27.52" x2="23.37" y2="27.52"/><line class="cls-7" x1="15.15" y1="26.07" x2="17.89" y2="26.07"/><line class="cls-7" x1="21.61" y1="26.07" x2="25.74" y2="26.07"/><line class="cls-6" x1="25.74" y1="24.68" x2="28.43" y2="24.68"/><circle class="cls-4" cx="3.44" cy="8.84" r="0.55"/><circle class="cls-4" cx="5.48" cy="8.84" r="0.55"/><circle class="cls-4" cx="7.51" cy="8.84" r="0.55"/><circle class="cls-4" cx="6.44" cy="6.91" r="0.58"/><polyline class="cls-6" points="9.53 15.26 6.96 16.75 9.53 18.23"/><polyline class="cls-6" points="13.11 18.23 15.69 16.75 13.11 15.26"/><line class="cls-6" x1="11.89" y1="15.44" x2="10.62" y2="17.51"/><rect class="cls-8" x="25.46" y="16.48" width="5.79" height="5.79"/></g></g></svg>